<svg xmlns="http://www.w3.org/2000/svg" viewBox="0 0 431.9 109.4"><title>Risorsa 1</title><g id="Livello_2" data-name="Livello 2"><g id="Livello_1-2" data-name="Livello 1"><path d="M114.5,66a14.6,14.6,0,0,1-3.8,9.4c-15.7,19.9-49.4,34-74.5,34-17.3,0-34.5-9.4-34.5-28.6,0-3.1,1.4-7.3,5.2-7.3S11,77.1,11,80.1c0,14.5,14.1,20.1,26.7,20.1,19.9,0,50.4-11.5,63.5-26.7,1.4-1.6,2.6-3.3,2.6-5.4,0-6.8-11.2-9.6-16.2-10.3C63,54.1,37.3,57.2,14.1,46.6,8.2,43.8,0,38.4,0,30.9,0,9.9,51.3,5.1,66.7,5.1c11.2,0,44.7,3,44.7,18.5,0,4.5-5.4,10.1-9.9,10.1a4.6,4.6,0,0,1-4.9-4.5c0-2.4,1.9-4.2,3.3-5.9-5.9-8-26.2-9.8-35.6-9.8-14.3,0-36.3,3.1-48.9,10.5-2.1,1.2-5.2,3.1-5.2,6.1,0,8.5,27.7,14.7,34.5,15.5,12.6,1.7,25.3,1.9,38,2.6C93,48.9,114.5,51.8,114.5,66ZM298,50.6c5.4,0,9.2-5.2,9.2-10.3,0-3.5-1.9-7.3-5.9-7.3-6.1,0-9.1,7.3-9.1,12.4C292.2,48.7,294.8,50.6,298,50.6Zm76.1,0c5.4,0,9.2-5.2,9.2-10.3,0-3.5-1.9-7.3-5.9-7.3-6.1,0-9.1,7.3-9.1,12.4C368.3,48.7,370.9,50.6,374,50.6Zm27.6,24.6c0,6.8-10.8,18.5-16.1,22.5a18.8,18.8,0,0,1-10.8,3.7c-6.7,0-9.8-4.3-11-9.6-4.6,5.4-10.7,9.5-17.4,9.5-9.6,0-12.2-8-12.2-16.2a59.1,59.1,0,0,1,.7-9.6c-3.2,1.8-6.2,3.2-9.8,2.8-2.3,6.8-11,16-15.5,19.5a18.8,18.8,0,0,1-10.8,3.7c-9.4,0-11.7-8.4-11.7-16.2,0-.1,0-.3,0-.5a25.1,25.1,0,0,1-14.7,2c-4,8.5-11.3,17.8-21.6,17.8s-13.3-7.7-15-15.9c-5.1,6.2-12,11.9-18.2,11.9s-12-4-14.8-9.4c-5.4,4.9-12.7,11.3-20.4,11.3s-10.9-5.3-12.1-11.6c-4.1,3.6-8.8,6.2-12.7,6.2-15,0-11.2-16.6-15.5-25.1-7.5,3.3-14,22.7-15.5,30.5-.9,3.3-1.7,7-5.9,7a4.3,4.3,0,0,1-4.2-4.5,3,3,0,0,1,.2-1.2c1.6-7.5,1.7-14.8,1.7-22.5.2-16.1,4.4-81.1,26-81.1,7.5,0,8.6,8,8.6,13.8,0,20.1-11.5,40-25,54.1l-.7,9.4c2.8-4.5,9.8-15,15.7-15,14.3,0,6.8,25.6,15.5,25.6s10-8.5,12.9-13.1a57.4,57.4,0,0,1,5.2-14.3,6,6,0,0,1,4.9-2.6,4.4,4.4,0,0,1,4.5,4.5c0,4.5-7.2,11.9-7.2,22.5,0,3.3,1,8.5,5.2,8.5,5.8,0,13.1-7.7,16.2-11.9.2-5.4,3.1-21.3,10.3-21.3,3.3,0,4.9,3.3,4.9,6.3,0,6.6-4.4,10.3-5.6,14.7.7,4.2,3,9.8,8,9.8,8.1,0,12.6-9.9,16.8-15.2.4-15.5,11-68.1,28.8-68.1,8.4,0,11.2,9.4,11.2,16.2,0,19.2-17.6,41-30.7,53.4,0,5.1,1.7,17.8,8.5,17.8,4.9,0,10.3-7.2,12-11.3-4-2.8-5.6-7.5-5.6-12.2s3.8-7.3,7.5-7.3c5.4,0,8.5,4.5,8.5,9.6a23.3,23.3,0,0,1-.5,4.9,8.5,8.5,0,0,0,2.1.2,15,15,0,0,0,11-4.4c.8-7.6,2.8-16.2,7.8-16.2a4.2,4.2,0,0,1,4.2,4.5c0,5.1-3.3,14.1-3.3,21.6,0,3.1,0,7.9,4.4,7.9,6.6,0,13.9-12.1,17-17.6a12.9,12.9,0,0,1,.7-1.6,7.1,7.1,0,0,1-.7-3.3c0-5.1,4.5-20.8,10.8-20.8,2.4,0,4.2,2.6,4.2,4.9,0,5.2-3,10.3-5.1,15l1.2.2c10.8,0,8.4-13.8,15.9-13.8,2.6,0,4.2,2.4,4.2,4.9s-1.2,3.8-2.8,5.6-3.1,13.3-3.1,16.2,1,9.4,6.1,9.4c7.8,0,11.2-8.6,14.4-14.3.6-8.2,2.5-18.9,8.1-18.9a4.2,4.2,0,0,1,4.2,4.5c0,5.1-3.3,14.1-3.3,21.6,0,3.1,0,7.9,4.4,7.9,7,0,14.7-13.4,17.4-18.5a5.2,5.2,0,0,1,3.8-2.4A3.6,3.6,0,0,1,401.6,75.2ZM244.4,65.8c9.8-10.1,20.9-26.5,20.9-41.4,0-1.9-.2-6.8-3-7C253.3,23.4,246.1,54.8,244.4,65.8ZM128.2,56.4c8-10.6,15.9-26.3,15.9-40.1a17.9,17.9,0,0,0-1-6.8C135.2,16.6,129.6,45.4,128.2,56.4Z" fill="#1d1d1b"/><path d="M414.6,17.3h-2.3v-.8h5.7v.8h-2.3v6.8h-1Z" fill="#3c3c3b"/><path d="M425.3,20.8c-.1-1.1-.1-2.4-.1-3.3h0c-.3.9-.6,1.9-1,2.9l-1.4,3.7H422l-1.2-3.7c-.4-1.1-.7-2.1-.9-3h0c0,1-.1,2.2-.1,3.4l-.2,3.3h-.9l.5-7.7h1.3l1.3,3.7c.3.9.6,1.8.8,2.6h0c.2-.8.5-1.6.8-2.6l1.4-3.7h1.3l.5,7.7h-1Z" fill="#3c3c3b"/><path d="M419.7,32.6a12.2,12.2,0,1,1,12.2-12.2A12.2,12.2,0,0,1,419.7,32.6Zm0-23.9a11.7,11.7,0,1,0,11.7,11.7A11.7,11.7,0,0,0,419.7,8.6Z" fill="#3c3c3b"/></g></g></svg>