<svg xmlns="http://www.w3.org/2000/svg" viewBox="0 0 389.8 323.4"><title>Risorsa 1</title><g id="Livello_2" data-name="Livello 2"><g id="Livello_1-2" data-name="Livello 1"><path d="M187,176.6a51.3,51.3,0,0,1-11.2,3.7c-6,1.1-17.4,2.2-21.4-1.8s-11.3-12.5-8-18.7,6.3-13.1,9.3-14.4,18.8-1.4,20.2,1.8S187,176.6,187,176.6Z" fill="#e6007e"/><path d="M187,176.6c-7,2.9-16.1,5.2-21.8,5.2a19.1,19.1,0,0,1,0-38.2,15.9,15.9,0,0,1,4,.6c-35-11.1-88.7,42-88.7,89,0,42.5,30.2,78.3,71.3,89.1l8.3.2a159.9,159.9,0,0,0,77.2-19.7C211.8,275,202.3,223,187,176.6Z" fill="none" stroke="#36a9e1" stroke-miterlimit="10" stroke-width="2"/><path d="M175.8,147.2c-16-35.8-39.6-62.7-83.9-62.7-38.6,0-72.4,26.9-90.4,67.8,0-.4.1-.7.1-1.1h0c-.2,3.5-.4,6.9-.4,10.5a160.7,160.7,0,0,0,150,160.3c-40.8-11-70.7-46.6-70.7-88.9C80.5,183.1,141.4,126.1,175.8,147.2Z" fill="none" stroke="#36a9e1" stroke-miterlimit="10" stroke-width="2"/><path d="M309.4,97.8c25.4,75.9,79,224.6,79,224.6H282.4c-19.1,0-33.4-7.2-44.6-19.1-53.2-56.4-37.2-218.9-146-218.9-38.6,0-72.4,26.9-90.4,67.8" fill="none" stroke="#36a9e1" stroke-miterlimit="10" stroke-width="2"/><path d="M212.2,257.6c-9.3-24.9-16.2-53.9-25.2-80.9-7,2.9-16.1,5.2-21.8,5.2a19.1,19.1,0,0,1,0-38.2,15.9,15.9,0,0,1,4,.6c-35-11.1-88.7,42-88.7,89,0,1.6.1,3.1.1,4.7a113.4,113.4,0,0,0,131.6,19.8Z" fill="none" stroke="#e6332a" stroke-miterlimit="10" stroke-width="2"/><path d="M91.9,84.4a82.3,82.3,0,0,0-19.6,2.4,121.8,121.8,0,0,0,9.3,160.4,89,89,0,0,1-1.2-14.1c0-50.1,60.9-107,95.3-86C159.8,111.4,136.2,84.4,91.9,84.4Z" fill="none" stroke="#662483" stroke-miterlimit="10" stroke-width="2"/><path d="M187,176.6" fill="none" stroke="#36a9e1" stroke-miterlimit="10" stroke-width="2"/><path d="M309.4,97.8" fill="none" stroke="#fff" stroke-miterlimit="10" stroke-width="2"/><circle cx="161.9" cy="161.7" r="160.7" fill="none" stroke="#e6007e" stroke-miterlimit="10" stroke-width="2"/><path d="M281.2,54a170.8,170.8,0,0,0-37.4,106.9c0,74.4,45.5,139.5,129.5,161.5h14.5S310.1,99.6,309.4,97.8A160.9,160.9,0,0,0,281.2,54Z" fill="none" stroke="#1d71b8" stroke-miterlimit="10" stroke-width="2" opacity="0.8"/><polygon points="340.5 20.2 345.1 20.2 345.1 33.7 347.1 33.7 347.1 20.2 351.8 20.2 351.8 18.5 340.5 18.5 340.5 20.2" fill="#662483"/><path d="M365.1,18.5l-2.7,7.4c-.7,1.9-1.2,3.6-1.6,5.1h-.1c-.4-1.6-.9-3.2-1.5-5.1l-2.6-7.4h-2.5l-1.1,15.2h1.9l.4-6.5c.1-2.3.2-4.8.3-6.7h0c.4,1.8,1,3.8,1.8,5.9l2.5,7.2h1.5l2.7-7.4c.8-2.1,1.4-4,1.9-5.8h.1c0,1.9.1,4.4.2,6.6l.4,6.7h1.9l-.9-15.2Z" fill="#662483"/><circle cx="354.6" cy="26.1" r="25.1" fill="none" stroke="#1d71b8" stroke-miterlimit="10" stroke-width="2" opacity="0.8"/></g></g></svg>